<?xml version="1.0" encoding="UTF-8" standalone="no"?>
<svg width="231px" height="30px" viewBox="0 0 231 29" version="1.1" xmlns="http://www.w3.org/2000/svg" xmlns:xlink="http://www.w3.org/1999/xlink">
    <!-- Generator: Sketch 3.6.1 (26313) - http://www.bohemiancoding.com/sketch -->
    <title>mark_logo</title>
    <desc>Created with Sketch.</desc>
    <defs></defs>
    <g id="Page-1" stroke="none" stroke-width="1" fill="none" fill-rule="evenodd">
        <g id="Desktop_new_rzmt" transform="translate(-122.000000, -30.000000)">
            <g id="mark_logo" transform="translate(121.000000, 30.000000)">
                <g id="logo_beta" transform="translate(1.339080, 0.000000)">
                    <g id="Layer_1">
                        <path d="M96.7003563,0.703447059 L84.6539885,0.703447059 C84.536819,0.703447059 84.4417443,0.795988235 84.4350489,0.911329412 C84.1324167,6.35918824 83.1073506,12.2281765 81.6229799,17.0222118 C81.6022241,17.0872588 81.6142759,17.1603529 81.6544483,17.2173529 C81.6959598,17.2716706 81.7622443,17.3058706 81.8312069,17.3058706 L85.9535661,17.3058706 C86.0486408,17.3058706 86.1336724,17.2441765 86.1624626,17.1523059 C87.31675,13.4573647 88.2433937,8.65796471 88.5962414,4.5714 L92.5492069,4.5714 L92.5492069,17.0865882 C92.5492069,17.2066235 92.6476293,17.3052 92.7681466,17.3052 L96.6996868,17.3052 C96.8215431,17.3052 96.9186264,17.2066235 96.9186264,17.0865882 L96.9186264,0.924070588 C96.919296,0.802694118 96.8222126,0.703447059 96.7003563,0.703447059" id="Shape" fill="#EE3F58"></path>
                        <path d="M147.642994,0.703447059 L143.712793,0.703447059 C143.592276,0.703447059 143.493184,0.802023529 143.493184,0.924070588 L143.493184,13.4292 C142.630147,13.6719529 141.768448,13.7879647 140.796945,13.7879647 C138.191095,13.7879647 137.591187,12.9906353 137.591187,9.52905882 L137.591187,0.924070588 C137.591187,0.802694118 137.493434,0.703447059 137.372247,0.703447059 L133.441376,0.703447059 C133.31952,0.703447059 133.222437,0.802023529 133.222437,0.924070588 L133.222437,9.94281176 C133.222437,15.5838 135.123261,17.7819882 140.00421,17.7819882 C142.781463,17.7819882 145.881434,17.0725059 147.72133,16.3704 C147.807032,16.3368706 147.863943,16.2570706 147.863943,16.1665412 L147.863943,0.924070588 C147.863273,0.802694118 147.764181,0.703447059 147.642994,0.703447059" id="Shape" fill="#EE3F58"></path>
                        <path d="M64.2966178,0.720882353 L60.3021408,0.720882353 C60.2017098,0.720882353 60.1133305,0.787941176 60.0898966,0.886517647 C59.457181,3.37842353 58.1890718,7.53204706 56.485092,11.8848353 L52.4718678,0.848294118 C52.4403994,0.762458824 52.3587155,0.703447059 52.2669885,0.703447059 L48.2229655,0.703447059 C48.1519943,0.703447059 48.0850402,0.738988235 48.0441983,0.798 C48.0033563,0.856341176 47.9926437,0.932117647 48.0167471,0.999176471 L54.0245316,17.5191176 C53.3965029,18.7845176 52.83275,19.8333176 52.2884138,20.8506 C51.8873592,21.5976353 51.4963477,22.3232118 51.102658,23.0977412 C51.0671724,23.1648 51.0711897,23.2466118 51.110023,23.3116588 C51.1501954,23.3767059 51.2211667,23.4162706 51.2974943,23.4162706 L55.6729397,23.4162706 C55.7546236,23.4162706 55.8289425,23.37 55.8671063,23.2962353 C56.6096264,21.8678824 57.526227,19.8829412 58.3792213,17.8530706 C60.9321782,11.8385647 62.9943621,6.16807059 64.5055144,1.00118824 C64.5256006,0.934129412 64.5128793,0.862376471 64.4706983,0.806047059 C64.4305259,0.7524 64.3655805,0.720882353 64.2966178,0.720882353" id="Shape" fill="#EE3F58"></path>
                        <path d="M78.6207615,13.4399294 C78.6006753,13.3849412 78.5591638,13.3393412 78.5069397,13.3158706 C78.4533764,13.2903882 78.3937874,13.2883765 78.337546,13.3091647 C77.3780948,13.6632353 75.5810489,13.9529294 74.3310172,13.9529294 C71.58925,13.9529294 70.2843161,13.2126 70.2843161,9.00264706 C70.2843161,5.63562353 70.6847011,4.05169412 74.3310172,4.05169412 C75.3641178,4.05169412 76.324908,4.20257647 77.5414626,4.55463529 C77.6418937,4.58212941 77.747681,4.53787059 77.797227,4.44734118 C78.2525144,3.58965882 78.803546,2.54287059 79.4235402,1.25869412 C79.4509914,1.20236471 79.4516609,1.13463529 79.4262184,1.07629412 C79.4021149,1.01996471 79.3518994,0.973694118 79.2923103,0.954247059 C77.6787184,0.440576471 75.7638333,0.144176471 74.0417759,0.144176471 C68.3018075,0.144176471 65.7421552,2.85670588 65.7421552,8.9376 C65.7421552,15.1096941 68.3018075,17.8597765 74.0417759,17.8597765 C75.4792787,17.8597765 78.3154511,17.5580118 79.6819828,17.0101412 C79.7917874,16.9665529 79.8473592,16.8445059 79.8065172,16.7311765 L78.6207615,13.4399294 L78.6207615,13.4399294 Z" id="Shape" fill="#EE3F58"></path>
                        <path d="M116.037348,0.720882353 L112.042871,0.720882353 C111.94244,0.720882353 111.85473,0.787941176 111.829287,0.886517647 C111.197241,3.38043529 109.929802,7.53405882 108.225822,11.8848353 L104.212598,0.848294118 C104.181129,0.762458824 104.099445,0.703447059 104.007049,0.703447059 L99.9636954,0.703447059 C99.8927241,0.703447059 99.8251006,0.738988235 99.7842586,0.798 C99.7427471,0.856341176 99.7340431,0.932117647 99.7568075,0.999176471 L105.763922,17.5191176 C105.137902,18.7825059 104.576828,19.8286235 104.031822,20.8445647 C103.629428,21.5929412 103.239086,22.3191882 102.844057,23.0970706 C102.808572,23.1641294 102.81192,23.2459412 102.851422,23.3109882 C102.891595,23.3760353 102.962566,23.4156 103.038894,23.4156 L107.41367,23.4156 C107.494014,23.4156 107.570342,23.3693294 107.608506,23.2955647 C108.349687,21.8692235 109.265618,19.8849529 110.119951,17.8524 C112.668891,11.8486235 114.731075,6.17812941 116.246244,1.00051765 C116.26633,0.933458824 116.253609,0.861705882 116.212767,0.805376471 C116.171256,0.7524 116.104971,0.720882353 116.037348,0.720882353" id="Shape" fill="#EE3F58"></path>
                        <path d="M130.792006,0.703447059 L119.154727,0.703447059 C119.03421,0.703447059 118.935787,0.802023529 118.935787,0.924070588 L118.935787,17.0872588 C118.935787,17.2072941 119.03421,17.3058706 119.154727,17.3058706 L123.084928,17.3058706 C123.205445,17.3058706 123.303868,17.2072941 123.303868,17.0872588 L123.303868,4.57207059 L129.380615,4.57207059 C129.468994,4.57207059 129.54867,4.51976471 129.582147,4.43996471 C130.044799,3.34690588 130.518833,2.19081176 130.994876,1.00588235 C131.021658,0.938823529 131.012954,0.861035294 130.974121,0.802694118 C130.933279,0.741670588 130.863647,0.703447059 130.792006,0.703447059" id="Shape" fill="#EE3F58"></path>
                        <path d="M21.5143362,14.1044824 C18.9258937,14.1044824 18.1190977,13.3996941 18.1190977,8.98990588 C18.1190977,4.29310588 18.9988736,3.87398824 21.5143362,3.87398824 C24.0759971,3.87398824 24.9725115,4.29310588 24.9725115,8.98990588 C24.9725115,13.3996941 24.1509856,14.1044824 21.5143362,14.1044824 M21.5143362,0.229341176 C15.8366351,0.229341176 13.6231351,2.66692941 13.6231351,8.92485882 C13.6231351,15.2753294 15.8359655,17.7477882 21.5143362,17.7477882 C27.2389052,17.7477882 29.4684741,15.2746588 29.4684741,8.92485882 C29.4684741,2.6676 27.2389052,0.229341176 21.5143362,0.229341176" id="Shape" fill="#0065B1"></path>
                        <path d="M45.1537931,13.4399294 C45.1337069,13.3849412 45.0928649,13.3393412 45.0393017,13.3158706 C44.9857385,13.2903882 44.9261494,13.2883765 44.8712471,13.3091647 C43.911796,13.6632353 42.1134109,13.9529294 40.8633793,13.9529294 C38.1216121,13.9529294 36.8166782,13.2126 36.8166782,9.00264706 C36.8166782,5.63562353 37.2163937,4.05169412 40.8633793,4.05169412 C41.8958103,4.05169412 42.8572701,4.20257647 44.0751638,4.55463529 C44.1742557,4.58212941 44.2807126,4.53787059 44.3295891,4.44734118 C44.7862155,3.58965882 45.3352385,2.54287059 45.9552328,1.25869412 C45.9833534,1.20236471 45.9846925,1.13463529 45.95925,1.07629412 C45.9338075,1.01996471 45.884931,0.973694118 45.825342,0.954247059 C44.2110805,0.440576471 42.298204,0.144176471 40.5741379,0.144176471 C34.8341695,0.144176471 32.2758563,2.85670588 32.2758563,8.9376 C32.2758563,15.1096941 34.8341695,17.8597765 40.5741379,17.8597765 C42.0123103,17.8597765 44.8478132,17.5580118 46.2156839,17.0101412 C46.324819,16.9665529 46.3803908,16.8445059 46.3395489,16.7311765 L45.1537931,13.4399294 L45.1537931,13.4399294 Z" id="Shape" fill="#0065B1"></path>
                        <path d="M12.4199713,0.703447059 L0.782692529,0.703447059 C0.661505747,0.703447059 0.563752874,0.802023529 0.563752874,0.924070588 L0.563752874,17.0872588 C0.563752874,17.2072941 0.661505747,17.3058706 0.782692529,17.3058706 L4.71222414,17.3058706 C4.83408046,17.3058706 4.93250287,17.2072941 4.93250287,17.0872588 L4.93250287,4.57207059 L11.0099195,4.57207059 C11.0976293,4.57207059 11.175296,4.51976471 11.2107816,4.43996471 C11.6720948,3.34690588 12.1481379,2.19081176 12.6235115,1.00588235 C12.6509626,0.938823529 12.6422586,0.861035294 12.6014167,0.802694118 C12.5605747,0.741670588 12.4936207,0.703447059 12.4199713,0.703447059" id="Shape" fill="#0065B1"></path>
                    </g>
                </g>
            </g>
        </g>
    </g>
</svg>